<svg xmlns="http://www.w3.org/2000/svg" xmlns:xlink="http://www.w3.org/1999/xlink" zoomAndPan="magnify" preserveAspectRatio="xMidYMid meet" version="1.0" viewBox="38.03 145.12 276.74 56.92"><defs><g/></defs><g fill="#000000" fill-opacity="1"><g transform="translate(37.500002, 201.046223)"><g><path d="M 0.53125 -43.9375 L 0.53125 -54.921875 L 39.140625 -54.921875 L 39.140625 -43.9375 L 26.09375 -43.9375 L 26.09375 0 L 13.578125 0 L 13.578125 -43.9375 Z M 0.53125 -43.9375 "/></g></g></g><g fill="#000000" fill-opacity="1"><g transform="translate(77.177302, 201.046223)"><g><path d="M 24.234375 -55.921875 C 27.203125 -55.921875 30.109375 -55.488281 32.953125 -54.625 C 35.796875 -53.757812 37.90625 -52.90625 39.28125 -52.0625 L 41.28125 -50.734375 L 36.21875 -40.75 C 35.820312 -41.007812 35.265625 -41.347656 34.546875 -41.765625 C 33.835938 -42.191406 32.503906 -42.757812 30.546875 -43.46875 C 28.597656 -44.1875 26.78125 -44.546875 25.09375 -44.546875 C 23.007812 -44.546875 21.398438 -44.097656 20.265625 -43.203125 C 19.140625 -42.316406 18.578125 -41.117188 18.578125 -39.609375 C 18.578125 -38.859375 18.84375 -38.160156 19.375 -37.515625 C 19.90625 -36.867188 20.8125 -36.179688 22.09375 -35.453125 C 23.382812 -34.722656 24.519531 -34.132812 25.5 -33.6875 C 26.476562 -33.238281 27.988281 -32.570312 30.03125 -31.6875 C 33.582031 -30.175781 36.609375 -28.125 39.109375 -25.53125 C 41.617188 -22.9375 42.875 -20 42.875 -16.71875 C 42.875 -13.5625 42.304688 -10.804688 41.171875 -8.453125 C 40.046875 -6.097656 38.492188 -4.253906 36.515625 -2.921875 C 34.546875 -1.597656 32.359375 -0.613281 29.953125 0.03125 C 27.554688 0.675781 24.960938 1 22.171875 1 C 19.773438 1 17.421875 0.753906 15.109375 0.265625 C 12.804688 -0.222656 10.875 -0.832031 9.3125 -1.5625 C 7.757812 -2.289062 6.363281 -3.007812 5.125 -3.71875 C 3.882812 -4.4375 2.972656 -5.039062 2.390625 -5.53125 L 1.53125 -6.265625 L 7.796875 -16.78125 C 8.328125 -16.332031 9.054688 -15.765625 9.984375 -15.078125 C 10.921875 -14.390625 12.578125 -13.46875 14.953125 -12.3125 C 17.328125 -11.15625 19.421875 -10.578125 21.234375 -10.578125 C 26.515625 -10.578125 29.15625 -12.378906 29.15625 -15.984375 C 29.15625 -16.734375 28.96875 -17.429688 28.59375 -18.078125 C 28.21875 -18.722656 27.550781 -19.363281 26.59375 -20 C 25.644531 -20.644531 24.800781 -21.15625 24.0625 -21.53125 C 23.332031 -21.914062 22.132812 -22.492188 20.46875 -23.265625 C 18.800781 -24.046875 17.570312 -24.632812 16.78125 -25.03125 C 13.445312 -26.675781 10.867188 -28.726562 9.046875 -31.1875 C 7.234375 -33.65625 6.328125 -36.304688 6.328125 -39.140625 C 6.328125 -44.066406 8.144531 -48.09375 11.78125 -51.21875 C 15.425781 -54.351562 19.578125 -55.921875 24.234375 -55.921875 Z M 24.234375 -55.921875 "/></g></g></g><g fill="#000000" fill-opacity="1"><g transform="translate(121.914118, 201.046223)"><g><path d="M 4 -54.921875 L 23.640625 -54.921875 C 28.921875 -54.921875 33.222656 -53.507812 36.546875 -50.6875 C 39.878906 -47.875 41.546875 -43.847656 41.546875 -38.609375 C 41.546875 -34.578125 40.535156 -31.195312 38.515625 -28.46875 C 36.492188 -25.738281 33.753906 -23.816406 30.296875 -22.703125 L 49.203125 0 L 33.296875 0 L 16.515625 -21.703125 L 16.515625 0 L 4 0 Z M 16.515625 -30.5625 L 17.96875 -30.5625 C 19.125 -30.5625 20.101562 -30.582031 20.90625 -30.625 C 21.707031 -30.664062 22.617188 -30.816406 23.640625 -31.078125 C 24.660156 -31.347656 25.476562 -31.726562 26.09375 -32.21875 C 26.71875 -32.707031 27.25 -33.414062 27.6875 -34.34375 C 28.132812 -35.28125 28.359375 -36.414062 28.359375 -37.75 C 28.359375 -39.082031 28.132812 -40.210938 27.6875 -41.140625 C 27.25 -42.078125 26.71875 -42.789062 26.09375 -43.28125 C 25.476562 -43.769531 24.660156 -44.144531 23.640625 -44.40625 C 22.617188 -44.675781 21.707031 -44.832031 20.90625 -44.875 C 20.101562 -44.914062 19.125 -44.9375 17.96875 -44.9375 L 16.515625 -44.9375 Z M 16.515625 -30.5625 "/></g></g></g><g fill="#000000" fill-opacity="1"><g transform="translate(169.580127, 201.046223)"><g><path d="M 7.21875 -4.0625 C 3.425781 -7.4375 1.53125 -11.765625 1.53125 -17.046875 C 1.53125 -22.328125 3.503906 -26.664062 7.453125 -30.0625 C 11.398438 -33.457031 16.285156 -35.15625 22.109375 -35.15625 C 27.828125 -35.15625 32.648438 -33.445312 36.578125 -30.03125 C 40.515625 -26.613281 42.484375 -22.285156 42.484375 -17.046875 C 42.484375 -11.804688 40.5625 -7.488281 36.71875 -4.09375 C 32.875 -0.695312 28.003906 1 22.109375 1 C 15.984375 1 11.019531 -0.6875 7.21875 -4.0625 Z M 16.34375 -22.828125 C 14.8125 -21.328125 14.046875 -19.398438 14.046875 -17.046875 C 14.046875 -14.691406 14.773438 -12.769531 16.234375 -11.28125 C 17.703125 -9.789062 19.632812 -9.046875 22.03125 -9.046875 C 24.34375 -9.046875 26.238281 -9.800781 27.71875 -11.3125 C 29.207031 -12.820312 29.953125 -14.734375 29.953125 -17.046875 C 29.953125 -19.398438 29.1875 -21.328125 27.65625 -22.828125 C 26.125 -24.335938 24.25 -25.09375 22.03125 -25.09375 C 19.769531 -25.09375 17.875 -24.335938 16.34375 -22.828125 Z M 16.34375 -22.828125 "/></g></g></g><g fill="#000000" fill-opacity="1"><g transform="translate(213.584637, 201.046223)"><g><path d="M 7.21875 -4.0625 C 3.425781 -7.4375 1.53125 -11.765625 1.53125 -17.046875 C 1.53125 -22.328125 3.503906 -26.664062 7.453125 -30.0625 C 11.398438 -33.457031 16.285156 -35.15625 22.109375 -35.15625 C 27.828125 -35.15625 32.648438 -33.445312 36.578125 -30.03125 C 40.515625 -26.613281 42.484375 -22.285156 42.484375 -17.046875 C 42.484375 -11.804688 40.5625 -7.488281 36.71875 -4.09375 C 32.875 -0.695312 28.003906 1 22.109375 1 C 15.984375 1 11.019531 -0.6875 7.21875 -4.0625 Z M 16.34375 -22.828125 C 14.8125 -21.328125 14.046875 -19.398438 14.046875 -17.046875 C 14.046875 -14.691406 14.773438 -12.769531 16.234375 -11.28125 C 17.703125 -9.789062 19.632812 -9.046875 22.03125 -9.046875 C 24.34375 -9.046875 26.238281 -9.800781 27.71875 -11.3125 C 29.207031 -12.820312 29.953125 -14.734375 29.953125 -17.046875 C 29.953125 -19.398438 29.1875 -21.328125 27.65625 -22.828125 C 26.125 -24.335938 24.25 -25.09375 22.03125 -25.09375 C 19.769531 -25.09375 17.875 -24.335938 16.34375 -22.828125 Z M 16.34375 -22.828125 "/></g></g></g><g fill="#000000" fill-opacity="1"><g transform="translate(257.589148, 201.046223)"><g><path d="M 5.984375 -34.15625 L 5.984375 -46.875 L 17.78125 -46.875 L 17.78125 -34.15625 L 24.96875 -34.15625 L 24.96875 -25.171875 L 17.78125 -25.171875 L 17.78125 -14.3125 C 17.78125 -11.164062 18.664062 -9.59375 20.4375 -9.59375 C 20.882812 -9.59375 21.347656 -9.679688 21.828125 -9.859375 C 22.316406 -10.035156 22.695312 -10.210938 22.96875 -10.390625 L 23.375 -10.65625 L 26.296875 -1.125 C 23.765625 0.289062 20.878906 1 17.640625 1 C 15.421875 1 13.507812 0.613281 11.90625 -0.15625 C 10.3125 -0.9375 9.101562 -1.984375 8.28125 -3.296875 C 7.46875 -4.609375 6.878906 -5.984375 6.515625 -7.421875 C 6.160156 -8.867188 5.984375 -10.410156 5.984375 -12.046875 L 5.984375 -25.171875 L 1.0625 -25.171875 L 1.0625 -34.15625 Z M 5.984375 -34.15625 "/></g></g></g><g fill="#000000" fill-opacity="1"><g transform="translate(283.885349, 201.046223)"><g><path d="M 18.84375 -35.15625 C 20.789062 -35.15625 22.71875 -34.929688 24.625 -34.484375 C 26.539062 -34.046875 27.960938 -33.601562 28.890625 -33.15625 L 30.296875 -32.484375 L 26.4375 -24.765625 C 23.769531 -26.179688 21.238281 -26.890625 18.84375 -26.890625 C 17.507812 -26.890625 16.566406 -26.742188 16.015625 -26.453125 C 15.460938 -26.171875 15.1875 -25.628906 15.1875 -24.828125 C 15.1875 -24.648438 15.207031 -24.472656 15.25 -24.296875 C 15.289062 -24.117188 15.378906 -23.953125 15.515625 -23.796875 C 15.648438 -23.640625 15.769531 -23.503906 15.875 -23.390625 C 15.988281 -23.285156 16.175781 -23.164062 16.4375 -23.03125 C 16.707031 -22.90625 16.921875 -22.804688 17.078125 -22.734375 C 17.234375 -22.671875 17.488281 -22.570312 17.84375 -22.4375 C 18.195312 -22.300781 18.460938 -22.195312 18.640625 -22.125 C 18.816406 -22.0625 19.113281 -21.960938 19.53125 -21.828125 C 19.957031 -21.703125 20.28125 -21.617188 20.5 -21.578125 C 21.875 -21.171875 23.070312 -20.722656 24.09375 -20.234375 C 25.113281 -19.742188 26.191406 -19.078125 27.328125 -18.234375 C 28.460938 -17.398438 29.335938 -16.335938 29.953125 -15.046875 C 30.578125 -13.753906 30.890625 -12.289062 30.890625 -10.65625 C 30.890625 -2.882812 25.5 1 14.71875 1 C 12.269531 1 9.945312 0.625 7.75 -0.125 C 5.550781 -0.882812 3.96875 -1.640625 3 -2.390625 L 1.53125 -3.59375 L 6.328125 -11.65625 C 6.679688 -11.34375 7.144531 -10.972656 7.71875 -10.546875 C 8.300781 -10.128906 9.34375 -9.550781 10.84375 -8.8125 C 12.351562 -8.082031 13.664062 -7.71875 14.78125 -7.71875 C 17.21875 -7.71875 18.4375 -8.539062 18.4375 -10.1875 C 18.4375 -10.9375 18.125 -11.519531 17.5 -11.9375 C 16.882812 -12.363281 15.832031 -12.84375 14.34375 -13.375 C 12.863281 -13.914062 11.703125 -14.40625 10.859375 -14.84375 C 8.722656 -15.957031 7.03125 -17.210938 5.78125 -18.609375 C 4.539062 -20.003906 3.921875 -21.859375 3.921875 -24.171875 C 3.921875 -27.628906 5.265625 -30.320312 7.953125 -32.25 C 10.640625 -34.1875 14.269531 -35.15625 18.84375 -35.15625 Z M 18.84375 -35.15625 "/></g></g></g></svg>